# xmcd CD database file
#
# Track frame offsets:
#	150
#	22826
#	38122
#	55151
#	76528
#	91816
#	114252
#	136632
#	161908
#	184021
#	210537
#	230450
#	252378
#
# Disc length: 3620 seconds
#
# Revision: 2
# Processed by: cddbd v1.5.2PL0 Copyright (c) Steve Scherf et al.
# Submitted via: CDex 1.50
#
DISCID=940e220d
DTITLE=Klaus Doldinger - Early Doldinger - The Complete Philips Sessions CD03
DYEAR=2006
DGENRE=Jazz
TTITLE0=Negra Sin Sandalia
TTITLE1=Recado
TTITLE2=Argentinia
TTITLE3=Guachi Guaro
TTITLE4=Praeludium Nr. 3
TTITLE5=Shakin' The Blues
TTITLE6=Quartenwalzer
TTITLE7=That Bluesy Sound
TTITLE8=Tears
TTITLE9=Five For You
TTITLE10=Run, Baby, Run
TTITLE11=Watch It
TTITLE12=Just A Little Bit Of Soul
EXTD=YEAR: 2006
EXTT0=
EXTT1=
EXTT2=
EXTT3=
EXTT4=
EXTT5=
EXTT6=
EXTT7=
EXTT8=
EXTT9=
EXTT10=
EXTT11=
EXTT12=
PLAYORDER=
